<svg width="32" height="32" viewBox="0 0 32 32" fill="none" xmlns="http://www.w3.org/2000/svg">
<rect x="0.5" y="0.5" width="31" height="31" rx="7.5" fill="white"/>
<rect x="0.5" y="0.5" width="31" height="31" rx="7.5" stroke="#DBDBDB"/>
<rect x="0.5" y="0.5" width="31" height="31" rx="7.5" stroke="black" stroke-opacity="0.2"/>
<path d="M17.5427 16.0783L17.4543 16.1667L17.5427 16.2551L19.9915 18.7039C20.2025 18.9149 20.274 19.148 20.2575 19.366C20.2408 19.5874 20.1324 19.8025 19.9674 19.9674C19.8025 20.1324 19.5874 20.2408 19.366 20.2575C19.148 20.274 18.9149 20.2025 18.7039 19.9915L16.2551 17.5427L16.1667 17.4543L16.0783 17.5427L13.6296 19.9914C13.4186 20.2025 13.1854 20.2739 12.9675 20.2575C12.746 20.2408 12.531 20.1324 12.366 19.9674C12.201 19.8024 12.0926 19.5874 12.0759 19.3659C12.0595 19.148 12.1309 18.9148 12.342 18.7038L14.7907 16.2551L14.8791 16.1667L14.7907 16.0783L12.3419 13.6295C12.1309 13.4185 12.0595 13.1854 12.0759 12.9675C12.0927 12.7461 12.2011 12.531 12.366 12.366C12.531 12.2011 12.7461 12.0927 12.9675 12.0759C13.1854 12.0595 13.4185 12.1309 13.6295 12.3419L16.0783 14.7907L16.1667 14.8791L16.2551 14.7907L18.7038 12.342C18.9148 12.1309 19.148 12.0595 19.3659 12.0759C19.5874 12.0926 19.8024 12.201 19.9674 12.366C20.1324 12.531 20.2408 12.746 20.2575 12.9675C20.2739 13.1854 20.2025 13.4186 19.9914 13.6296L17.5427 16.0783Z" fill="#B5B5B5"/>
<path d="M17.5427 16.0783L17.4543 16.1667L17.5427 16.2551L19.9915 18.7039C20.2025 18.9149 20.274 19.148 20.2575 19.366C20.2408 19.5874 20.1324 19.8025 19.9674 19.9674C19.8025 20.1324 19.5874 20.2408 19.366 20.2575C19.148 20.274 18.9149 20.2025 18.7039 19.9915L16.2551 17.5427L16.1667 17.4543L16.0783 17.5427L13.6296 19.9914C13.4186 20.2025 13.1854 20.2739 12.9675 20.2575C12.746 20.2408 12.531 20.1324 12.366 19.9674C12.201 19.8024 12.0926 19.5874 12.0759 19.3659C12.0595 19.148 12.1309 18.9148 12.342 18.7038L14.7907 16.2551L14.8791 16.1667L14.7907 16.0783L12.3419 13.6295C12.1309 13.4185 12.0595 13.1854 12.0759 12.9675C12.0927 12.7461 12.2011 12.531 12.366 12.366C12.531 12.2011 12.7461 12.0927 12.9675 12.0759C13.1854 12.0595 13.4185 12.1309 13.6295 12.3419L16.0783 14.7907L16.1667 14.8791L16.2551 14.7907L18.7038 12.342C18.9148 12.1309 19.148 12.0595 19.3659 12.0759C19.5874 12.0926 19.8024 12.201 19.9674 12.366C20.1324 12.531 20.2408 12.746 20.2575 12.9675C20.2739 13.1854 20.2025 13.4186 19.9914 13.6296L17.5427 16.0783Z" stroke="#DBDBDB" stroke-width="0.25"/>
<path d="M17.5427 16.0783L17.4543 16.1667L17.5427 16.2551L19.9915 18.7039C20.2025 18.9149 20.274 19.148 20.2575 19.366C20.2408 19.5874 20.1324 19.8025 19.9674 19.9674C19.8025 20.1324 19.5874 20.2408 19.366 20.2575C19.148 20.274 18.9149 20.2025 18.7039 19.9915L16.2551 17.5427L16.1667 17.4543L16.0783 17.5427L13.6296 19.9914C13.4186 20.2025 13.1854 20.2739 12.9675 20.2575C12.746 20.2408 12.531 20.1324 12.366 19.9674C12.201 19.8024 12.0926 19.5874 12.0759 19.3659C12.0595 19.148 12.1309 18.9148 12.342 18.7038L14.7907 16.2551L14.8791 16.1667L14.7907 16.0783L12.3419 13.6295C12.1309 13.4185 12.0595 13.1854 12.0759 12.9675C12.0927 12.7461 12.2011 12.531 12.366 12.366C12.531 12.2011 12.7461 12.0927 12.9675 12.0759C13.1854 12.0595 13.4185 12.1309 13.6295 12.3419L16.0783 14.7907L16.1667 14.8791L16.2551 14.7907L18.7038 12.342C18.9148 12.1309 19.148 12.0595 19.3659 12.0759C19.5874 12.0926 19.8024 12.201 19.9674 12.366C20.1324 12.531 20.2408 12.746 20.2575 12.9675C20.2739 13.1854 20.2025 13.4186 19.9914 13.6296L17.5427 16.0783Z" stroke="black" stroke-opacity="0.2" stroke-width="0.25"/>
</svg>
